<svg width="50" height="50" viewBox="0 0 50 50" fill="none" xmlns="http://www.w3.org/2000/svg">
<circle cx="25" cy="25" r="25" fill="#2D2D3A"/>
<path fill-rule="evenodd" clip-rule="evenodd" d="M24.9833 17.9384L16.9403 24.4109C16.2953 24.9299 15.3518 24.8279 14.8313 24.1829C14.3123 23.5364 14.4143 22.5929 15.0593 22.0724L24.0593 14.8304C24.6158 14.3834 25.4108 14.3879 25.9598 14.8484L34.9598 22.3484C35.5973 22.8779 35.6828 23.8229 35.1518 24.4604C34.8548 24.8159 34.4288 25.0004 33.9998 25.0004C33.6608 25.0004 33.3203 24.8849 33.0398 24.6524L24.9833 17.9384ZM24.0596 25.3311C24.6161 24.8826 25.4111 24.8886 25.9601 25.3476L34.9601 32.8476C35.5961 33.3786 35.6816 34.3236 35.1521 34.9596C34.8551 35.3166 34.4291 35.4996 33.9986 35.4996C33.6611 35.4996 33.3206 35.3856 33.0401 35.1516L24.9836 28.4391L16.9406 34.9101C16.2956 35.4306 15.3521 35.3286 14.8316 34.6821C14.3111 34.0371 14.4146 33.0936 15.0596 32.5731L24.0596 25.3311Z" fill="#4B4B62"/>
<mask id="mask0" mask-type="alpha" maskUnits="userSpaceOnUse" x="14" y="14" width="22" height="22">
<path fill-rule="evenodd" clip-rule="evenodd" d="M24.9833 17.9384L16.9403 24.4109C16.2953 24.9299 15.3518 24.8279 14.8313 24.1829C14.3123 23.5364 14.4143 22.5929 15.0593 22.0724L24.0593 14.8304C24.6158 14.3834 25.4108 14.3879 25.9598 14.8484L34.9598 22.3484C35.5973 22.8779 35.6828 23.8229 35.1518 24.4604C34.8548 24.8159 34.4288 25.0004 33.9998 25.0004C33.6608 25.0004 33.3203 24.8849 33.0398 24.6524L24.9833 17.9384ZM24.0596 25.3311C24.6161 24.8826 25.4111 24.8886 25.9601 25.3476L34.9601 32.8476C35.5961 33.3786 35.6816 34.3236 35.1521 34.9596C34.8551 35.3166 34.4291 35.4996 33.9986 35.4996C33.6611 35.4996 33.3206 35.3856 33.0401 35.1516L24.9836 28.4391L16.9406 34.9101C16.2956 35.4306 15.3521 35.3286 14.8316 34.6821C14.3111 34.0371 14.4146 33.0936 15.0596 32.5731L24.0596 25.3311Z" fill="white"/>
</mask>
<g mask="url(#mask0)">
<rect x="7" y="7" width="36" height="36" fill="#4B4B62"/>
</g>
</svg>
